<mxfile host="app.diagrams.net" modified="2023-11-04T09:59:18.089Z" agent="Mozilla/5.0 (Windows NT 10.0; Win64; x64) AppleWebKit/537.36 (KHTML, like Gecko) Chrome/118.0.0.0 Safari/537.36" etag="RPSwPSjNf_DYpc9oLvZL" version="22.0.8" type="device">
  <diagram id="C5RBs43oDa-KdzZeNtuy" name="Page-1">
    <mxGraphModel dx="1235" dy="675" grid="1" gridSize="10" guides="1" tooltips="1" connect="1" arrows="1" fold="1" page="1" pageScale="1" pageWidth="827" pageHeight="1169" math="0" shadow="0">
      <root>
        <mxCell id="WIyWlLk6GJQsqaUBKTNV-0" />
        <mxCell id="WIyWlLk6GJQsqaUBKTNV-1" parent="WIyWlLk6GJQsqaUBKTNV-0" />
        <mxCell id="1esCkplvkV44b7dthGbA-23" value="" style="edgeStyle=orthogonalEdgeStyle;rounded=0;orthogonalLoop=1;jettySize=auto;html=1;" edge="1" parent="WIyWlLk6GJQsqaUBKTNV-1" source="WIyWlLk6GJQsqaUBKTNV-6" target="1esCkplvkV44b7dthGbA-22">
          <mxGeometry relative="1" as="geometry" />
        </mxCell>
        <mxCell id="1esCkplvkV44b7dthGbA-30" value="No" style="edgeLabel;html=1;align=center;verticalAlign=middle;resizable=0;points=[];" vertex="1" connectable="0" parent="1esCkplvkV44b7dthGbA-23">
          <mxGeometry x="-0.2494" y="1" relative="1" as="geometry">
            <mxPoint x="-21" as="offset" />
          </mxGeometry>
        </mxCell>
        <mxCell id="1esCkplvkV44b7dthGbA-26" value="" style="edgeStyle=orthogonalEdgeStyle;rounded=0;orthogonalLoop=1;jettySize=auto;html=1;" edge="1" parent="WIyWlLk6GJQsqaUBKTNV-1" source="WIyWlLk6GJQsqaUBKTNV-6" target="WIyWlLk6GJQsqaUBKTNV-7">
          <mxGeometry relative="1" as="geometry" />
        </mxCell>
        <mxCell id="1esCkplvkV44b7dthGbA-29" value="Yes" style="edgeLabel;html=1;align=center;verticalAlign=middle;resizable=0;points=[];" vertex="1" connectable="0" parent="1esCkplvkV44b7dthGbA-26">
          <mxGeometry x="-0.1794" y="-1" relative="1" as="geometry">
            <mxPoint y="-11" as="offset" />
          </mxGeometry>
        </mxCell>
        <mxCell id="WIyWlLk6GJQsqaUBKTNV-6" value="Đủ thời gian 5s" style="rhombus;whiteSpace=wrap;html=1;shadow=0;fontFamily=Helvetica;fontSize=12;align=center;strokeWidth=1;spacing=6;spacingTop=-4;" parent="WIyWlLk6GJQsqaUBKTNV-1" vertex="1">
          <mxGeometry x="70" y="210" width="180" height="80" as="geometry" />
        </mxCell>
        <mxCell id="1esCkplvkV44b7dthGbA-32" style="edgeStyle=orthogonalEdgeStyle;rounded=0;orthogonalLoop=1;jettySize=auto;html=1;entryX=0.5;entryY=0;entryDx=0;entryDy=0;exitX=0.5;exitY=1;exitDx=0;exitDy=0;" edge="1" parent="WIyWlLk6GJQsqaUBKTNV-1" source="WIyWlLk6GJQsqaUBKTNV-7">
          <mxGeometry relative="1" as="geometry">
            <mxPoint x="290" y="229.9988235294117" as="sourcePoint" />
            <mxPoint x="160" y="319.94" as="targetPoint" />
            <Array as="points">
              <mxPoint x="358" y="320" />
            </Array>
          </mxGeometry>
        </mxCell>
        <mxCell id="WIyWlLk6GJQsqaUBKTNV-7" value="Đọc cảm biến&lt;br&gt;nhiệt độ độ ẩm" style="rounded=1;whiteSpace=wrap;html=1;fontSize=12;glass=0;strokeWidth=1;shadow=0;" parent="WIyWlLk6GJQsqaUBKTNV-1" vertex="1">
          <mxGeometry x="290" y="220" width="136" height="60" as="geometry" />
        </mxCell>
        <mxCell id="1esCkplvkV44b7dthGbA-35" value="" style="edgeStyle=orthogonalEdgeStyle;rounded=0;orthogonalLoop=1;jettySize=auto;html=1;" edge="1" parent="WIyWlLk6GJQsqaUBKTNV-1" source="WIyWlLk6GJQsqaUBKTNV-10" target="1esCkplvkV44b7dthGbA-34">
          <mxGeometry relative="1" as="geometry" />
        </mxCell>
        <mxCell id="1esCkplvkV44b7dthGbA-62" value="Yes" style="edgeLabel;html=1;align=center;verticalAlign=middle;resizable=0;points=[];" vertex="1" connectable="0" parent="1esCkplvkV44b7dthGbA-35">
          <mxGeometry x="-0.7152" y="4" relative="1" as="geometry">
            <mxPoint x="3" y="-6" as="offset" />
          </mxGeometry>
        </mxCell>
        <mxCell id="1esCkplvkV44b7dthGbA-38" value="" style="edgeStyle=orthogonalEdgeStyle;rounded=0;orthogonalLoop=1;jettySize=auto;html=1;" edge="1" parent="WIyWlLk6GJQsqaUBKTNV-1" source="WIyWlLk6GJQsqaUBKTNV-10" target="1esCkplvkV44b7dthGbA-37">
          <mxGeometry relative="1" as="geometry" />
        </mxCell>
        <mxCell id="1esCkplvkV44b7dthGbA-64" value="No" style="edgeLabel;html=1;align=center;verticalAlign=middle;resizable=0;points=[];" vertex="1" connectable="0" parent="1esCkplvkV44b7dthGbA-38">
          <mxGeometry x="-0.7247" relative="1" as="geometry">
            <mxPoint x="10" y="3" as="offset" />
          </mxGeometry>
        </mxCell>
        <mxCell id="WIyWlLk6GJQsqaUBKTNV-10" value="Lượt gửi cho GW" style="rhombus;whiteSpace=wrap;html=1;shadow=0;fontFamily=Helvetica;fontSize=12;align=center;strokeWidth=1;spacing=6;spacingTop=-4;" parent="WIyWlLk6GJQsqaUBKTNV-1" vertex="1">
          <mxGeometry x="280" y="340" width="190" height="80" as="geometry" />
        </mxCell>
        <mxCell id="1esCkplvkV44b7dthGbA-0" value="End" style="ellipse;whiteSpace=wrap;html=1;" vertex="1" parent="WIyWlLk6GJQsqaUBKTNV-1">
          <mxGeometry x="100" y="770" width="120" height="50" as="geometry" />
        </mxCell>
        <mxCell id="1esCkplvkV44b7dthGbA-27" value="" style="edgeStyle=orthogonalEdgeStyle;rounded=0;orthogonalLoop=1;jettySize=auto;html=1;" edge="1" parent="WIyWlLk6GJQsqaUBKTNV-1" source="1esCkplvkV44b7dthGbA-1" target="1esCkplvkV44b7dthGbA-3">
          <mxGeometry relative="1" as="geometry" />
        </mxCell>
        <mxCell id="1esCkplvkV44b7dthGbA-1" value="Start" style="ellipse;whiteSpace=wrap;html=1;" vertex="1" parent="WIyWlLk6GJQsqaUBKTNV-1">
          <mxGeometry x="100" y="10" width="120" height="50" as="geometry" />
        </mxCell>
        <mxCell id="1esCkplvkV44b7dthGbA-28" value="" style="edgeStyle=orthogonalEdgeStyle;rounded=0;orthogonalLoop=1;jettySize=auto;html=1;" edge="1" parent="WIyWlLk6GJQsqaUBKTNV-1" source="1esCkplvkV44b7dthGbA-3" target="WIyWlLk6GJQsqaUBKTNV-6">
          <mxGeometry relative="1" as="geometry" />
        </mxCell>
        <mxCell id="1esCkplvkV44b7dthGbA-3" value="Khởi tạo thông số&lt;br&gt;(LoRa,AHT20)" style="rounded=0;whiteSpace=wrap;html=1;" vertex="1" parent="WIyWlLk6GJQsqaUBKTNV-1">
          <mxGeometry x="70" y="110" width="180" height="60" as="geometry" />
        </mxCell>
        <mxCell id="1esCkplvkV44b7dthGbA-55" value="" style="edgeStyle=orthogonalEdgeStyle;rounded=0;orthogonalLoop=1;jettySize=auto;html=1;" edge="1" parent="WIyWlLk6GJQsqaUBKTNV-1" source="1esCkplvkV44b7dthGbA-13" target="1esCkplvkV44b7dthGbA-46">
          <mxGeometry relative="1" as="geometry" />
        </mxCell>
        <mxCell id="1esCkplvkV44b7dthGbA-65" value="Yes" style="edgeLabel;html=1;align=center;verticalAlign=middle;resizable=0;points=[];" vertex="1" connectable="0" parent="1esCkplvkV44b7dthGbA-55">
          <mxGeometry x="-0.1794" y="1" relative="1" as="geometry">
            <mxPoint y="-9" as="offset" />
          </mxGeometry>
        </mxCell>
        <mxCell id="1esCkplvkV44b7dthGbA-60" style="edgeStyle=orthogonalEdgeStyle;rounded=0;orthogonalLoop=1;jettySize=auto;html=1;entryX=0;entryY=0.5;entryDx=0;entryDy=0;" edge="1" parent="WIyWlLk6GJQsqaUBKTNV-1" source="1esCkplvkV44b7dthGbA-13" target="WIyWlLk6GJQsqaUBKTNV-6">
          <mxGeometry relative="1" as="geometry">
            <mxPoint x="40" y="250" as="targetPoint" />
            <Array as="points">
              <mxPoint x="160" y="760" />
              <mxPoint x="30" y="760" />
              <mxPoint x="30" y="250" />
            </Array>
          </mxGeometry>
        </mxCell>
        <mxCell id="1esCkplvkV44b7dthGbA-68" value="No" style="edgeLabel;html=1;align=center;verticalAlign=middle;resizable=0;points=[];" vertex="1" connectable="0" parent="1esCkplvkV44b7dthGbA-60">
          <mxGeometry x="-0.8737" relative="1" as="geometry">
            <mxPoint x="20" y="1" as="offset" />
          </mxGeometry>
        </mxCell>
        <mxCell id="1esCkplvkV44b7dthGbA-13" value="Có tin nhắn gửi tới&lt;br&gt;đúng địa chỉ&amp;nbsp;" style="rhombus;whiteSpace=wrap;html=1;shadow=0;fontFamily=Helvetica;fontSize=12;align=center;strokeWidth=1;spacing=6;spacingTop=-4;" vertex="1" parent="WIyWlLk6GJQsqaUBKTNV-1">
          <mxGeometry x="70" y="560" width="180" height="100" as="geometry" />
        </mxCell>
        <mxCell id="1esCkplvkV44b7dthGbA-24" value="" style="edgeStyle=orthogonalEdgeStyle;rounded=0;orthogonalLoop=1;jettySize=auto;html=1;" edge="1" parent="WIyWlLk6GJQsqaUBKTNV-1" source="1esCkplvkV44b7dthGbA-22">
          <mxGeometry relative="1" as="geometry">
            <mxPoint x="160" y="560" as="targetPoint" />
          </mxGeometry>
        </mxCell>
        <mxCell id="1esCkplvkV44b7dthGbA-25" value="No" style="edgeLabel;html=1;align=center;verticalAlign=middle;resizable=0;points=[];" vertex="1" connectable="0" parent="1esCkplvkV44b7dthGbA-24">
          <mxGeometry x="-0.2676" y="-2" relative="1" as="geometry">
            <mxPoint x="-18" y="1" as="offset" />
          </mxGeometry>
        </mxCell>
        <mxCell id="1esCkplvkV44b7dthGbA-33" value="" style="edgeStyle=orthogonalEdgeStyle;rounded=0;orthogonalLoop=1;jettySize=auto;html=1;" edge="1" parent="WIyWlLk6GJQsqaUBKTNV-1" source="1esCkplvkV44b7dthGbA-22" target="WIyWlLk6GJQsqaUBKTNV-10">
          <mxGeometry relative="1" as="geometry" />
        </mxCell>
        <mxCell id="1esCkplvkV44b7dthGbA-61" value="Yes" style="edgeLabel;html=1;align=center;verticalAlign=middle;resizable=0;points=[];" vertex="1" connectable="0" parent="1esCkplvkV44b7dthGbA-33">
          <mxGeometry x="-0.7162" y="3" relative="1" as="geometry">
            <mxPoint y="-7" as="offset" />
          </mxGeometry>
        </mxCell>
        <mxCell id="1esCkplvkV44b7dthGbA-22" value="Đủ thời gian 0.8s" style="rhombus;whiteSpace=wrap;html=1;shadow=0;fontFamily=Helvetica;fontSize=12;align=center;strokeWidth=1;spacing=6;spacingTop=-4;" vertex="1" parent="WIyWlLk6GJQsqaUBKTNV-1">
          <mxGeometry x="70" y="340" width="180" height="80" as="geometry" />
        </mxCell>
        <mxCell id="1esCkplvkV44b7dthGbA-40" value="" style="edgeStyle=orthogonalEdgeStyle;rounded=0;orthogonalLoop=1;jettySize=auto;html=1;" edge="1" parent="WIyWlLk6GJQsqaUBKTNV-1" source="1esCkplvkV44b7dthGbA-34" target="1esCkplvkV44b7dthGbA-39">
          <mxGeometry relative="1" as="geometry" />
        </mxCell>
        <mxCell id="1esCkplvkV44b7dthGbA-34" value="Gửi dữ liệu đi cho GW" style="whiteSpace=wrap;html=1;shadow=0;strokeWidth=1;spacing=6;spacingTop=-4;" vertex="1" parent="WIyWlLk6GJQsqaUBKTNV-1">
          <mxGeometry x="500" y="350" width="120" height="60" as="geometry" />
        </mxCell>
        <mxCell id="1esCkplvkV44b7dthGbA-42" value="" style="edgeStyle=orthogonalEdgeStyle;rounded=0;orthogonalLoop=1;jettySize=auto;html=1;" edge="1" parent="WIyWlLk6GJQsqaUBKTNV-1" source="1esCkplvkV44b7dthGbA-37" target="1esCkplvkV44b7dthGbA-41">
          <mxGeometry relative="1" as="geometry" />
        </mxCell>
        <mxCell id="1esCkplvkV44b7dthGbA-37" value="Lượt gửi đi cho&lt;br&gt;Node2" style="whiteSpace=wrap;html=1;shadow=0;strokeWidth=1;spacing=6;spacingTop=-4;" vertex="1" parent="WIyWlLk6GJQsqaUBKTNV-1">
          <mxGeometry x="315" y="450" width="120" height="60" as="geometry" />
        </mxCell>
        <mxCell id="1esCkplvkV44b7dthGbA-44" style="edgeStyle=orthogonalEdgeStyle;rounded=0;orthogonalLoop=1;jettySize=auto;html=1;" edge="1" parent="WIyWlLk6GJQsqaUBKTNV-1" source="1esCkplvkV44b7dthGbA-39">
          <mxGeometry relative="1" as="geometry">
            <mxPoint x="170" y="540" as="targetPoint" />
            <Array as="points">
              <mxPoint x="700" y="540" />
              <mxPoint x="170" y="540" />
            </Array>
          </mxGeometry>
        </mxCell>
        <mxCell id="1esCkplvkV44b7dthGbA-39" value="Lượt tiếp theo cho&lt;br&gt;Node2" style="whiteSpace=wrap;html=1;shadow=0;strokeWidth=1;spacing=6;spacingTop=-4;" vertex="1" parent="WIyWlLk6GJQsqaUBKTNV-1">
          <mxGeometry x="660" y="350" width="120" height="60" as="geometry" />
        </mxCell>
        <mxCell id="1esCkplvkV44b7dthGbA-45" value="" style="edgeStyle=orthogonalEdgeStyle;rounded=0;orthogonalLoop=1;jettySize=auto;html=1;" edge="1" parent="WIyWlLk6GJQsqaUBKTNV-1" source="1esCkplvkV44b7dthGbA-41">
          <mxGeometry relative="1" as="geometry">
            <mxPoint x="560" y="540" as="targetPoint" />
          </mxGeometry>
        </mxCell>
        <mxCell id="1esCkplvkV44b7dthGbA-41" value="Lượt tiếp theo cho&lt;br&gt;GW" style="whiteSpace=wrap;html=1;shadow=0;strokeWidth=1;spacing=6;spacingTop=-4;" vertex="1" parent="WIyWlLk6GJQsqaUBKTNV-1">
          <mxGeometry x="500" y="450" width="120" height="60" as="geometry" />
        </mxCell>
        <mxCell id="1esCkplvkV44b7dthGbA-53" value="" style="edgeStyle=orthogonalEdgeStyle;rounded=0;orthogonalLoop=1;jettySize=auto;html=1;" edge="1" parent="WIyWlLk6GJQsqaUBKTNV-1" source="1esCkplvkV44b7dthGbA-46" target="1esCkplvkV44b7dthGbA-52">
          <mxGeometry relative="1" as="geometry" />
        </mxCell>
        <mxCell id="1esCkplvkV44b7dthGbA-67" value="No" style="edgeLabel;html=1;align=center;verticalAlign=middle;resizable=0;points=[];" vertex="1" connectable="0" parent="1esCkplvkV44b7dthGbA-53">
          <mxGeometry x="0.602" y="-3" relative="1" as="geometry">
            <mxPoint x="18" as="offset" />
          </mxGeometry>
        </mxCell>
        <mxCell id="1esCkplvkV44b7dthGbA-54" value="" style="edgeStyle=orthogonalEdgeStyle;rounded=0;orthogonalLoop=1;jettySize=auto;html=1;" edge="1" parent="WIyWlLk6GJQsqaUBKTNV-1" source="1esCkplvkV44b7dthGbA-46" target="1esCkplvkV44b7dthGbA-51">
          <mxGeometry relative="1" as="geometry" />
        </mxCell>
        <mxCell id="1esCkplvkV44b7dthGbA-66" value="Yes" style="edgeLabel;html=1;align=center;verticalAlign=middle;resizable=0;points=[];" vertex="1" connectable="0" parent="1esCkplvkV44b7dthGbA-54">
          <mxGeometry x="0.1619" relative="1" as="geometry">
            <mxPoint y="-10" as="offset" />
          </mxGeometry>
        </mxCell>
        <mxCell id="1esCkplvkV44b7dthGbA-46" value="Tin nhắn được gửi từ&lt;br&gt;GW" style="rhombus;whiteSpace=wrap;html=1;shadow=0;fontFamily=Helvetica;fontSize=12;align=center;strokeWidth=1;spacing=6;spacingTop=-4;" vertex="1" parent="WIyWlLk6GJQsqaUBKTNV-1">
          <mxGeometry x="290" y="560" width="190" height="100" as="geometry" />
        </mxCell>
        <mxCell id="1esCkplvkV44b7dthGbA-48" value="Đọc cảm biến&amp;nbsp;&lt;br&gt;nhiệt độ - độ ẩm" style="rounded=0;whiteSpace=wrap;html=1;" vertex="1" parent="WIyWlLk6GJQsqaUBKTNV-1">
          <mxGeometry x="290" y="220" width="140" height="60" as="geometry" />
        </mxCell>
        <mxCell id="1esCkplvkV44b7dthGbA-56" style="edgeStyle=orthogonalEdgeStyle;rounded=0;orthogonalLoop=1;jettySize=auto;html=1;" edge="1" parent="WIyWlLk6GJQsqaUBKTNV-1" source="1esCkplvkV44b7dthGbA-51">
          <mxGeometry relative="1" as="geometry">
            <mxPoint x="160" y="760" as="targetPoint" />
            <Array as="points">
              <mxPoint x="570" y="675" />
              <mxPoint x="571" y="710" />
            </Array>
          </mxGeometry>
        </mxCell>
        <mxCell id="1esCkplvkV44b7dthGbA-51" value="Xử lí các lệnh gửi đến&lt;br&gt;Xử lí dữ liệu gửi cho&amp;nbsp;&lt;br&gt;Node2" style="rounded=0;whiteSpace=wrap;html=1;" vertex="1" parent="WIyWlLk6GJQsqaUBKTNV-1">
          <mxGeometry x="510" y="580" width="120" height="60" as="geometry" />
        </mxCell>
        <mxCell id="1esCkplvkV44b7dthGbA-57" style="edgeStyle=orthogonalEdgeStyle;rounded=0;orthogonalLoop=1;jettySize=auto;html=1;exitX=0.5;exitY=1;exitDx=0;exitDy=0;" edge="1" parent="WIyWlLk6GJQsqaUBKTNV-1" source="1esCkplvkV44b7dthGbA-52">
          <mxGeometry relative="1" as="geometry">
            <mxPoint x="385" y="760" as="targetPoint" />
          </mxGeometry>
        </mxCell>
        <mxCell id="1esCkplvkV44b7dthGbA-52" value="Xử lí các giá trị cảm biến để gửi cho GW" style="rounded=0;whiteSpace=wrap;html=1;" vertex="1" parent="WIyWlLk6GJQsqaUBKTNV-1">
          <mxGeometry x="325" y="680" width="120" height="60" as="geometry" />
        </mxCell>
      </root>
    </mxGraphModel>
  </diagram>
</mxfile>
